<svg width="47" height="47" viewBox="0 0 47 47" fill="none" xmlns="http://www.w3.org/2000/svg">
<circle cx="23.5" cy="23.5" r="23.5" fill="white"/>
<mask id="mask0_50_4" style="mask-type:alpha" maskUnits="userSpaceOnUse" x="12" y="12" width="24" height="24">
<rect x="12" y="12" width="24" height="24" fill="#D9D9D9"/>
</mask>
<g mask="url(#mask0_50_4)">
<path d="M18.5 23L24 14L29.5 23H18.5ZM29.5 34C28.25 34 27.1875 33.5625 26.3125 32.6875C25.4375 31.8125 25 30.75 25 29.5C25 28.25 25.4375 27.1875 26.3125 26.3125C27.1875 25.4375 28.25 25 29.5 25C30.75 25 31.8125 25.4375 32.6875 26.3125C33.5625 27.1875 34 28.25 34 29.5C34 30.75 33.5625 31.8125 32.6875 32.6875C31.8125 33.5625 30.75 34 29.5 34ZM15 33.5V25.5H23V33.5H15ZM29.5 32C30.2 32 30.7917 31.7583 31.275 31.275C31.7583 30.7917 32 30.2 32 29.5C32 28.8 31.7583 28.2083 31.275 27.725C30.7917 27.2417 30.2 27 29.5 27C28.8 27 28.2083 27.2417 27.725 27.725C27.2417 28.2083 27 28.8 27 29.5C27 30.2 27.2417 30.7917 27.725 31.275C28.2083 31.7583 28.8 32 29.5 32ZM17 31.5H21V27.5H17V31.5ZM22.05 21H25.95L24 17.85L22.05 21Z" fill="#1C1B1F"/>
</g>
</svg>
