<svg width="15" height="14" viewBox="0 0 15 14" fill="none" xmlns="http://www.w3.org/2000/svg">
<mask id="mask0_29_30" style="mask-type:alpha" maskUnits="userSpaceOnUse" x="0" y="0" width="15" height="14">
<rect width="15" height="13.6364" fill="#D9D9D9"/>
</mask>
<g mask="url(#mask0_29_30)">
<path d="M6.625 9.43182L11.0312 5.42613L10.1562 4.63068L6.625 7.84091L4.84375 6.22159L3.96875 7.01704L6.625 9.43182ZM7.5 12.5C6.63542 12.5 5.82292 12.3508 5.0625 12.0526C4.30208 11.7543 3.64062 11.3494 3.07812 10.8381C2.51562 10.3267 2.07031 9.72538 1.74219 9.03409C1.41406 8.3428 1.25 7.60416 1.25 6.81818C1.25 6.03219 1.41406 5.29356 1.74219 4.60227C2.07031 3.91098 2.51562 3.30966 3.07812 2.79829C3.64062 2.28693 4.30208 1.8821 5.0625 1.5838C5.82292 1.28551 6.63542 1.13636 7.5 1.13636C8.36458 1.13636 9.17708 1.28551 9.9375 1.5838C10.6979 1.8821 11.3594 2.28693 11.9219 2.79829C12.4844 3.30966 12.9297 3.91098 13.2578 4.60227C13.5859 5.29356 13.75 6.03219 13.75 6.81818C13.75 7.60416 13.5859 8.3428 13.2578 9.03409C12.9297 9.72538 12.4844 10.3267 11.9219 10.8381C11.3594 11.3494 10.6979 11.7543 9.9375 12.0526C9.17708 12.3508 8.36458 12.5 7.5 12.5ZM7.5 11.3636C8.89583 11.3636 10.0781 10.9233 11.0469 10.0426C12.0156 9.16193 12.5 8.08712 12.5 6.81818C12.5 5.54924 12.0156 4.47443 11.0469 3.59375C10.0781 2.71306 8.89583 2.27272 7.5 2.27272C6.10417 2.27272 4.92187 2.71306 3.95312 3.59375C2.98437 4.47443 2.5 5.54924 2.5 6.81818C2.5 8.08712 2.98437 9.16193 3.95312 10.0426C4.92187 10.9233 6.10417 11.3636 7.5 11.3636Z" fill="#90FF5C"/>
</g>
</svg>
