<svg width="55" height="55" viewBox="0 0 55 55" fill="none" xmlns="http://www.w3.org/2000/svg">
<g filter="url(#filter0_d_50_2)">
<circle cx="27.5" cy="23.5" r="23.5" fill="white"/>
</g>
<g filter="url(#filter1_d_50_2)">
<mask id="mask0_50_2" style="mask-type:alpha" maskUnits="userSpaceOnUse" x="12" y="8" width="32" height="32">
<rect x="12" y="8" width="32" height="32" fill="#D9D9D9"/>
</mask>
<g mask="url(#mask0_50_2)">
<path d="M38.1333 36L29.7333 27.6C29.0667 28.1333 28.3 28.5556 27.4333 28.8667C26.5667 29.1778 25.6444 29.3333 24.6667 29.3333C22.2444 29.3333 20.1944 28.4944 18.5167 26.8167C16.8389 25.1389 16 23.0889 16 20.6667C16 18.2444 16.8389 16.1944 18.5167 14.5167C20.1944 12.8389 22.2444 12 24.6667 12C27.0889 12 29.1389 12.8389 30.8167 14.5167C32.4944 16.1944 33.3333 18.2444 33.3333 20.6667C33.3333 21.6444 33.1778 22.5667 32.8667 23.4333C32.5556 24.3 32.1333 25.0667 31.6 25.7333L40 34.1333L38.1333 36ZM24.6667 26.6667C26.3333 26.6667 27.75 26.0833 28.9167 24.9167C30.0833 23.75 30.6667 22.3333 30.6667 20.6667C30.6667 19 30.0833 17.5833 28.9167 16.4167C27.75 15.25 26.3333 14.6667 24.6667 14.6667C23 14.6667 21.5833 15.25 20.4167 16.4167C19.25 17.5833 18.6667 19 18.6667 20.6667C18.6667 22.3333 19.25 23.75 20.4167 24.9167C21.5833 26.0833 23 26.6667 24.6667 26.6667Z" fill="#1C1B1F"/>
</g>
</g>
<defs>
<filter id="filter0_d_50_2" x="0" y="0" width="55" height="55" filterUnits="userSpaceOnUse" color-interpolation-filters="sRGB">
<feFlood flood-opacity="0" result="BackgroundImageFix"/>
<feColorMatrix in="SourceAlpha" type="matrix" values="0 0 0 0 0 0 0 0 0 0 0 0 0 0 0 0 0 0 127 0" result="hardAlpha"/>
<feOffset dy="4"/>
<feGaussianBlur stdDeviation="2"/>
<feComposite in2="hardAlpha" operator="out"/>
<feColorMatrix type="matrix" values="0 0 0 0 0 0 0 0 0 0 0 0 0 0 0 0 0 0 0.25 0"/>
<feBlend mode="normal" in2="BackgroundImageFix" result="effect1_dropShadow_50_2"/>
<feBlend mode="normal" in="SourceGraphic" in2="effect1_dropShadow_50_2" result="shape"/>
</filter>
<filter id="filter1_d_50_2" x="12" y="12" width="32" height="32" filterUnits="userSpaceOnUse" color-interpolation-filters="sRGB">
<feFlood flood-opacity="0" result="BackgroundImageFix"/>
<feColorMatrix in="SourceAlpha" type="matrix" values="0 0 0 0 0 0 0 0 0 0 0 0 0 0 0 0 0 0 127 0" result="hardAlpha"/>
<feOffset dy="4"/>
<feGaussianBlur stdDeviation="2"/>
<feComposite in2="hardAlpha" operator="out"/>
<feColorMatrix type="matrix" values="0 0 0 0 0 0 0 0 0 0 0 0 0 0 0 0 0 0 0.25 0"/>
<feBlend mode="normal" in2="BackgroundImageFix" result="effect1_dropShadow_50_2"/>
<feBlend mode="normal" in="SourceGraphic" in2="effect1_dropShadow_50_2" result="shape"/>
</filter>
</defs>
</svg>
